<?xml version="1.0" encoding="utf-8"?>
<!-- Generator: Adobe Illustrator 16.0.0, SVG Export Plug-In . SVG Version: 6.00 Build 0)  -->
<!DOCTYPE svg PUBLIC "-//W3C//DTD SVG 1.1//EN" "http://www.w3.org/Graphics/SVG/1.1/DTD/svg11.dtd">
<svg version="1.1" id="Layer_1" xmlns="http://www.w3.org/2000/svg" xmlns:xlink="http://www.w3.org/1999/xlink" x="0px" y="0px"
	 width="1200px" height="1200px" viewBox="0 0 1200 1200" enable-background="new 0 0 1200 1200" xml:space="preserve">
<g>
	<g>
		<radialGradient id="SVGID_1_" cx="354.8599" cy="457.439" r="687.5013" gradientUnits="userSpaceOnUse">
			<stop  offset="0" style="stop-color:#027F00"/>
			<stop  offset="1" style="stop-color:#003F10"/>
		</radialGradient>
		<path fill-rule="evenodd" clip-rule="evenodd" fill="url(#SVGID_1_)" d="M600,1081.01c-64.927,0-127.922-12.72-187.235-37.807
			c-57.281-24.228-108.72-58.908-152.89-103.077c-44.17-44.169-78.851-95.608-103.079-152.888
			c-25.088-59.312-37.809-122.308-37.809-187.235c0-64.927,12.721-127.922,37.809-187.235
			c24.228-57.28,58.909-108.72,103.079-152.89s95.609-78.851,152.89-103.079C472.078,131.711,535.073,118.99,600,118.99
			s127.922,12.721,187.235,37.809c57.28,24.228,108.72,58.909,152.89,103.079c44.169,44.17,78.851,95.61,103.079,152.89
			c25.087,59.312,37.808,122.308,37.808,187.235c0,64.928-12.721,127.923-37.808,187.235
			c-24.228,57.28-58.909,108.719-103.079,152.888c-44.17,44.169-95.609,78.849-152.89,103.077
			C727.922,1068.29,664.927,1081.01,600,1081.01z"/>
		<path fill="#FDCE1E" d="M600,136.49c255.985,0,463.512,207.526,463.512,463.512c0,255.988-207.526,463.507-463.512,463.507
			c-255.986,0-463.512-207.52-463.512-463.507C136.488,344.017,344.014,136.49,600,136.49 M600,101.49
			c-67.282,0-132.571,13.186-194.052,39.191c-59.366,25.11-112.676,61.05-158.447,106.822s-81.711,99.081-106.822,158.447
			c-26.005,61.481-39.191,126.77-39.191,194.052c0,67.283,13.186,132.571,39.191,194.052
			c25.11,59.366,61.05,112.675,106.822,158.446c45.771,45.771,99.081,81.71,158.447,106.82
			c61.481,26.004,126.77,39.189,194.052,39.189c67.282,0,132.57-13.186,194.052-39.189c59.366-25.11,112.676-61.049,158.447-106.82
			c45.772-45.771,81.712-99.08,106.822-158.446c26.005-61.481,39.191-126.77,39.191-194.052c0-67.282-13.186-132.571-39.191-194.052
			c-25.11-59.366-61.05-112.676-106.822-158.447s-99.081-81.711-158.447-106.822C732.57,114.676,667.282,101.49,600,101.49
			L600,101.49z"/>
	</g>
	<g>
		<radialGradient id="SVGID_2_" cx="541.0264" cy="605.6064" r="356.7148" gradientUnits="userSpaceOnUse">
			<stop  offset="0" style="stop-color:#FFE300"/>
			<stop  offset="1" style="stop-color:#FFC000"/>
		</radialGradient>
		<path fill-rule="evenodd" clip-rule="evenodd" fill="url(#SVGID_2_)" d="M285.714,823.481c0.005,19.875,5.588,36.931,20.61,50.449
			c6.431,5.809,14.163,8.206,22.329,7.601c9.087-0.696,17.637-3.73,25.261-9.261c15.581-11.382,28.484-25.4,41.375-39.626
			c20.068-22.156,38.855-45.649,63.486-63.252c20.291-14.526,42.441-25.352,66.067-33.354c25.325-8.601,50.571-17.461,75.566-26.943
			c6.946-2.629,13.162-7.52,19.275-11.963c5.349-3.872,5.378-5.729,3.352-12.065c-4.824-15.02-13.364-27.927-23.369-39.75
			c-13.127-15.554-26.685-30.762-40.747-45.481c-21.011-22.002-42.043-44.067-64.091-65.032c-26.131-24.81-53.337-48.52-80.042-72.7
			c-2.366-2.156-5.161-4.038-6.892-6.597c-1.853-2.712-3.752-6.06-3.831-9.199c-0.715-26.135,7.041-49.905,25.068-68.687
			c9.827-10.261,22.549-18.181,34.963-25.469c18.779-11.028,38.325-20.818,57.751-30.771c20.31-10.378,40.703-20.508,61.262-30.337
			c12.598-6.013,25.547-11.318,38.369-16.838c16.453-7.095,32.878-14.173,49.417-21.045c10.646-4.426,21.486-8.34,32.143-12.734
			c4.973-2.08,9.583-5.042,14.561-7.056c19.802-8,39.829-15.425,60.952-19.39c4.543-0.825,9.263-1.218,13.879-1.184
			c11.135,0.093,16.965,5.952,17.668,17.253c0.847,13.337-2.466,25.869-7.666,37.92c-8.164,18.879-20.322,35.195-33.062,51.184
			c-8.569,10.732-16.438,22.004-24.763,32.905c-2.19,2.883-4.871,5.432-7.534,7.893c-0.637,0.596-2.175,0.176-3.276,0.22
			c-0.01-0.93-0.22-1.924,0.034-2.776c0.435-1.401,1.021-2.808,1.843-4.001c8.65-12.778,17.349-25.5,25.999-38.274
			c8.359-12.39,17.478-24.353,24.783-37.341c7.07-12.593,2.327-19.378-12.283-17.903c-9.167,0.918-18.228,3.823-27.083,6.634
			c-13.787,4.362-27.451,9.201-41.023,14.226c-9.865,3.667-19.548,7.817-29.229,11.982c-22.756,9.766-45.522,19.609-68.222,29.526
			c-13.491,5.881-27.131,11.487-40.234,18.101c-21.665,10.974-43.12,22.38-64.39,34.126c-20.581,11.36-40.839,23.345-61.174,35.166
			c-3.813,2.229-7.354,4.9-10.85,7.59c-3.884,2.949-4.048,4.412-0.22,7.351c6.245,4.729,12.869,8.977,19.248,13.518
			c22.566,16.098,45.083,32.263,67.656,48.357c30.764,21.933,62.061,43.208,92.2,65.983c20.12,15.198,39.226,31.907,57.709,49.065
			c12.381,11.482,22.698,25.093,34.297,37.432c13.757,14.612,26.362,30.454,43.86,41.121c15.251,9.282,31.387,10.207,48.237,6.089
			c18.44-4.478,32.649-15.459,44.834-29.39c4.487-5.122,8.293-10.884,12.539-16.25c0.781-0.999,2.192-1.501,3.325-2.244
			c0.566,1.282,1.546,2.532,1.636,3.823c1.089,14.008-1.123,27.25-7.739,39.902c-9.272,17.752-22.553,31.582-39.912,41.16
			c-18.899,10.479-38.953,14.846-60.183,7.183c-10.564-3.813-19.844-9.824-27.695-17.737c-16.567-16.758-32.741-33.892-49.25-50.666
			c-15.693-15.928-31.562-31.65-47.495-47.327c-2.158-2.117-5.117-3.457-7.722-5.173c1.387,2.708,2.72,5.417,4.185,8.091
			c5.078,9.224,10.588,18.23,15.254,27.649c8.254,16.682,6.75,33.955,1.353,50.969c-3.792,11.916-8.994,23.288-16.562,33.537
			c-6.016,8.159-13.713,14.58-22.507,18.542c-19.011,8.491-38.586,15.776-58.135,22.986c-5.938,2.173-10.369,4.824-12.859,10.862
			c-10.503,25.347-23.896,49.57-28.298,77.197c-3.537,22.046-3.278,43.572,7.729,63.779c10.574,19.351,27.036,29.243,49.092,29.602
			c24.404,0.4,47.002-6.304,68.481-17.493c3.691-1.912,7.625-3.276,11.433-4.961c1.55-0.676,3.101-1.406,4.556-2.266
			c6.663-4.097,13.069-8.623,19.956-12.268c8.919-4.69,16.968-10.483,24.593-16.995c4.106-3.513,8.955-6.145,12.959-9.714
			c10.964-9.761,21.789-19.722,32.446-29.822c4.121-3.898,4.402-17.255,0.378-20.91c-1.558-1.426-4.968-1.799-7.266-1.306
			c-14.749,3.167-29.648,3.696-44.658,3.542c-11.447-0.112-21.589-3.638-29.277-11.672c-4.204-4.365-7.051-10.652-8.823-16.575
			c-3.926-13.005-1.201-25.837,3.511-38.208c5.347-14.001,13.505-26.335,25.486-35.432c15.437-11.736,28.755-12.432,42.485-4.956
			c8.545,4.636,16.162,10.393,21.655,18.374c5.151,7.471,9.797,15.278,14.116,23.245c3.787,6.958,4.614,7.869,11.753,3.953
			c13.96-7.668,27.661-15.793,41.453-23.748c7.231-4.141,14.25-8.633,22.805-9.893c7.957-1.147,14.902,2.322,17.249,10.129
			c1.379,4.575,2.185,9.746,1.614,14.429c-2.546,20.688-11.135,39.004-22.793,56.06c-7.09,10.322-13.767,20.901-20.85,31.218
			c-2.605,3.828-5.63,7.395-8.799,10.806c-4.668,5.08-4.653,5.972,1.25,9.914c9.993,6.644,20,13.335,30.007,19.968
			c5.83,3.879,6.15,5.398,2.271,11.199c-5.317,7.979-10.593,15.957-15.945,23.887c-1.089,1.638-2.4,3.12-3.652,4.614
			c-1.943,2.263-3.901,2.268-6.37,0.464c-10.449-7.751-21.008-15.332-31.484-23.018c-5.244-3.85-5.249-4.612-1.926-10.071
			c5.752-9.412,11.416-18.906,17.085-28.352c0.505-0.847,1.14-1.67,1.418-2.568c6.66-20.939,19.473-38.42,31.499-56.376
			c2.981-4.465,5.242-9.404,7.842-14.15c1.814-3.364,1.814-6.577-0.935-9.48c-2.825-2.961-6.211-2.71-9.531-1.208
			c-3.562,1.624-7.136,3.301-10.459,5.369c-13.105,8.198-25.986,16.763-39.207,24.739c-4.28,2.571-6.375,5.723-6.816,10.464
			c-2.363,23.855-11.809,44.934-25.371,64.365c-10.723,15.347-25.017,26.919-39.897,37.847
			c-11.25,8.254-22.395,16.704-34.038,24.375c-26.43,17.361-54.362,31.687-85.976,36.787c-14.58,2.356-29.453,2.356-43.525-3.459
			c-18.635-7.722-30.102-22.483-37.507-40.54c-7.365-17.961-9.775-36.624-8.403-56.174c1.995-28.411,10.659-54.756,22.166-80.386
			c4.929-10.925,10.737-21.482,16.062-32.239c0.618-1.208,0.703-2.683,1.018-4.048c-1.543,0.02-3.22-0.369-4.6,0.12
			c-34.917,12.214-63.708,33.494-88.269,60.63c-13.645,15.08-26.357,31.011-39.707,46.359
			c-9.397,10.815-20.579,19.656-32.793,27.112c-16.274,9.888-37.095,7.058-52.512-6.624c-16.779-14.89-24.836-34.121-28.613-55.773
			c-3.391-19.448,0.218-38.132,4.99-56.68c7.83-30.505,21.035-58.621,38.75-84.592c5.557-8.154,8.342-16.311,7.48-26.721
			c-0.696-8.728,2.28-17.883,4.392-26.655c0.967-3.979,1.077-6.716-1.729-10.009c-2.468-2.893-3.765-6.772-5.728-10.115
			c-0.654-1.128-1.846-1.97-2.798-2.937c-0.623,0.967-1.279,1.914-1.875,2.908c-2.766,4.57-5.039,9.578-8.374,13.679
			c-6.601,8.138-15.454,10.13-25.229,6.883c-10.112-3.343-14.915-11.489-15.457-21.321c-0.483-8.694,1.097-17.524,1.971-26.292
			c0.324-3.176,1.411-6.248,1.73-9.429c0.145-1.487-0.715-3.071-1.118-4.612c-1.069,1.106-2.731,2.056-3.105,3.372
			c-2.702,9.67-5.249,19.365-7.648,29.119c-2.271,9.282-4.241,18.667-6.514,27.954c-1.211,4.949-4.329,8.286-9.57,8.992
			c-4.934,0.666-7.51-2.83-10.049-6.196c-8.848-11.665-9.905-25.286-9.68-39.209c0.049-2.932,0.474-5.884,1.05-8.76
			c0.247-1.167,1.331-2.178,2.026-3.276c0.603,1.248,1.602,2.454,1.655,3.721c0.088,2.427-0.391,4.875-0.559,7.317
			c-0.752,9.971,0.269,19.641,5.42,28.452c1.069,1.853,2.522,3.708,4.236,4.905c4.563,3.218,7.949,2.559,10.034-2.532
			c2.2-5.381,3.95-11.047,5.059-16.77c3.188-16.384,5.139-33.064,13.918-47.778c0.996-1.702,1.802-3.674,3.234-4.873
			c1.709-1.406,3.989-2.102,5.994-3.113c1.001,2.041,3.005,4.175,2.819,6.118c-0.847,9.761-2.36,19.465-3.483,29.202
			c-0.479,4.121-0.952,8.34-0.652,12.454c1.069,15.288,15.596,22.322,28.33,13.828c9.148-6.113,13.511-15.115,13.052-25.779
			c-0.454-10.51-2.012-20.984-3.591-31.387c-0.981-6.538-1.03-12.708,2.078-18.669c0.522-1.021,1.421-1.841,2.146-2.764
			c0.964,0.942,2.563,1.738,2.812,2.856c1.865,8.586,3.889,17.197,5.029,25.913c1.428,10.674,1.748,21.482,3.193,32.156
			c0.498,3.694,2.388,7.52,4.585,10.618c4.885,6.921,16.003,7.136,20.974,0.364c1.47-2.017,1.814-5.581,1.34-8.215
			c-1.392-7.722-3.435-15.305-5.266-22.944c-2.556-10.706-5.718-21.294-7.422-32.144c-0.679-4.177,1.75-8.928,3.13-13.306
			c0.134-0.469,3.643-0.715,3.884-0.212c3.55,6.982,6.887,14.099,10.085,21.255c0.332,0.803-0.33,2.93-0.923,3.127
			c-4.988,1.497-2.827,4.749-2.087,7.646c1.777,7.151,3.503,14.319,5.459,21.406c2.866,10.413,1.375,20.566-2.117,30.396
			c-3.01,8.591-9.5,14.047-18.733,14.169c-5.276,0.091-6.985,2.373-7.927,6.611c-1.755,7.871-4.258,15.688-2.441,23.901
			c4.072,18.589,23.352,25.447,38.235,23.618c21.719-2.639,40.698-12.275,59.158-23.181c1.055-0.62,2.314-2.31,2.166-3.276
			c-0.2-1.111-1.689-2.532-2.878-2.894c-3.765-1.094-7.639-1.768-11.497-2.575c-2.393-0.506-4.812-0.918-7.212-1.367
			c-11.848-2.171-15.93-12.161-13.391-22.278c3.582-14.257,13.047-24.479,25.339-32.124c4.001-2.493,6.565-0.117,8.464,3.032
			c2.166,3.555,3.77,7.444,5.85,11.069c2.893,4.98,4.517,4.941,7.634,0.176c7.825-11.902,16.035-23.494,26.904-32.966
			c8.133-7.041,19.072-8.962,27.981-3.647c9.404,5.579,16.816,15.125,14.479,27.478c-2.327,12.285-8.33,22.188-20.122,27.26
			c-7.383,3.191-15.176,5.503-22.946,7.664c-4.268,1.164-7.596,2.741-9.837,6.809c-3.35,5.989-7.573,11.512-10.678,17.63
			c-2.424,4.719-4.104,9.943-5.442,15.124c-1.545,5.757,0.227,10.825,5.422,14.099c5.02,3.174,10.214,1.709,14.495-1.348
			c7.58-5.393,14.934-11.162,21.975-17.207c10.645-9.146,21.453-18.022,33.887-24.617c8.057-4.25,16.362-7.863,25.999-4.919
			c9.861,3.013,14.619,11.364,11.65,21.045c-0.95,3.112-2.537,3.569-4.714,1.384c-9.846-9.849-20.92-9.616-32.346-3.547
			c-15.52,8.22-28.611,19.78-41.941,31.008c-4.653,3.918-9.536,7.756-14.826,10.725c-9.463,5.317-19.373,1.25-23.35-8.853
			c-3.032-7.727-2.864-15.581,0.242-22.966c3.232-7.629,7.539-14.812,11.46-22.144c0.925-1.733,2.292-3.213,3.293-4.885
			c2.478-4.194,2.009-5.789-2.5-6.831c-4.744-1.099-9.607-2.144-14.456-2.358c-2.891-0.13-3.569-1.162-4.487-3.523
			c-1.948-5.012-4.329-9.858-6.733-14.677c-2.266-4.553-3.989-4.941-8.884-3.196c-6.125,2.209-9.944,7.09-13.862,11.753
			c-2.324,2.805-1.624,5.82,1.501,7.414c3.027,1.556,6.394,2.537,9.683,3.262c4.084,0.913,8.269,1.18,12.371,1.978
			c12.188,2.415,16.567,11.572,11.982,22.977c-3.057,7.634-8.818,12.399-15.066,16.63c-16.174,11.021-33.56,19.446-53.083,22.527
			c-14.062,2.236-27.009,0.005-36.936-11.353c-2.947-3.376-5-2.144-6.824,0.928c-15.122,25.649-29.177,51.772-35.832,81.111
			C288.961,803.681,287.518,813.613,285.714,823.481z M460.477,644.919c14.484-0.325,26.543-3.513,37.842-10.64
			c2.534-1.592,6.018-2.817,5.021-7.126c-3.181-13.906-20.581-20.906-32.676-13.328c-9.641,6.069-15.915,15.161-22.651,23.889
			c-2.261,2.92-1.057,5.3,2.251,6.055C453.599,644.485,457.061,644.548,460.477,644.919z M688.735,795.593
			c7.116-0.71,12.231-1.213,17.321-1.716c4.88-0.474,5.664-1.88,2.644-5.61c-5.315-6.621-11.892-11.555-20.004-14.417
			c-6.614-2.324-12.718-1.758-17.881,2.927c-2.349,2.122-5.566,5.723-5.098,7.939c0.615,2.915,4.067,6.316,7.058,7.437
			C678.415,794.206,684.585,794.763,688.735,795.593z"/>
		<radialGradient id="SVGID_3_" cx="898.1914" cy="632.7856" r="231.1987" gradientUnits="userSpaceOnUse">
			<stop  offset="0" style="stop-color:#FFE300"/>
			<stop  offset="1" style="stop-color:#FFC000"/>
		</radialGradient>
		<path fill-rule="evenodd" clip-rule="evenodd" fill="url(#SVGID_3_)" d="M904.787,444.913
			c-0.144,86.369-0.183,172.736-0.522,259.103c-0.103,27.725-0.464,55.461-1.646,83.127c-1.282,29.639-3.232,59.268-5.712,88.806
			c-2.163,25.764-7.054,51.03-19.229,74.279c-0.237,0.435-0.369,0.952-0.684,1.316c-2.144,2.434-5.01,7.202-6.401,6.812
			c-4.287-1.226-1.351-5.422-1.16-8.23c2.796-46.548,3.223-93.156,3.203-139.768c0-14.189,0.991-28.376,1.03-42.561
			c0.205-64.316,0.083-128.627,0.345-192.912c0.107-26.716,0.905-53.438,1.496-80.154c0.918-40.7,1.98-81.394,2.825-122.131
			c0.109-5.583-0.926-11.216-1.045-16.831c-0.059-3.115-0.166-6.704,1.208-9.258c6.985-12.683,14.434-25.127,21.782-37.585
			c0.432-0.752,1.433-1.143,2.151-1.733c0.674,1.196,1.687,2.3,1.936,3.572c6.033,28.54,12.271,57.024,17.764,85.691
			c2.734,14.414,4.146,29.087,5.901,43.672c0.32,2.812-0.393,5.857-0.957,8.699c-0.212,0.991-1.362,2.397-2.209,2.507
			c-0.811,0.078-2.126-1.104-2.629-2.039c-3.669-6.926-7.092-13.987-10.811-20.872c-0.793-1.465-2.581-2.383-3.899-3.572
			c-0.518,1.536-1.445,3.071-1.504,4.617c-0.205,5.134-0.068,10.305-0.068,15.444C905.561,444.913,905.177,444.913,904.787,444.913z
			"/>
		<radialGradient id="SVGID_4_" cx="712.1821" cy="473.7251" r="106.3097" gradientUnits="userSpaceOnUse">
			<stop  offset="0" style="stop-color:#FFE300"/>
			<stop  offset="1" style="stop-color:#FFC000"/>
		</radialGradient>
		<path fill-rule="evenodd" clip-rule="evenodd" fill="url(#SVGID_4_)" d="M651.213,482.498c9.468,0.483,18.54-1.023,26.971-5.63
			c4.634-2.52,4.785-3.667,0.928-7.376c-4.93-4.787-9.507-9.943-14.676-14.445c-4.57-4.001-4.536-8.933-4.126-14.143
			c0.262-3.33,2.178-4.368,5.062-2.759c5.114,2.869,10.212,5.891,15.156,9.048c1.013,0.642,2.253,2.644,1.924,3.442
			c-1.719,4.213,1.066,5.769,3.815,7.571c13.931,9.099,11.106,10.107,25.356,0.132c2.59-1.839,4.973-3.978,7.476-5.95
			c3.335-2.639,4.368-6.082,2.622-9.802c-1.67-3.645-5.081-1.731-7.888-1.667c-3.63,0.081-7.341,0.488-10.925,0.037
			c-7.692-0.962-12.238-6.287-12.31-13.928c-0.119-9.158,3.724-16.68,10.237-22.817c5.144-4.858,10.32-5.476,15.911-1.099
			c4.141,3.215,7.383,7.646,10.681,11.826c1.538,1.965,2.432,4.465,5.542,3.655c3.35-0.852,4.771-3.381,4.612-6.633
			c-0.093-2.192-0.498-4.436-1.267-6.472c-2.908-7.798-5.928-15.552-9.036-23.269c-1.68-4.102-0.51-12.883,2.59-15.598
			c0.615-0.544,3.01-0.247,3.508,0.427c3.313,4.556,6.375,9.304,9.377,14.08c0.449,0.696,0.625,2.178,0.186,2.751
			c-3.015,4.065-0.503,7.595,1.011,11.038c5.916,13.396,4.922,28.755-6.68,35.483c-3.918,2.253-4.287,2.62-7.244,14.651
			c-1.313,8.542-7.319,18.694-13.992,24.848c-3.84,3.001-3.164,3.001,2.136,8.255c9.434,9.406,8.813,25.979-0.671,35.522
			c-5.32,5.349-11.338,10.176-17.563,14.424c-8.306,5.627-17.129,10.52-25.801,15.63c-8.369,6.104-9.331,4.087-7.285,11.831
			c1.452,5.442,7.28,9.216,13.835,8.694c7.769-0.61,13.926-4.268,18.457-10.676c2.981-4.211,5.967-8.398,9.331-12.278
			c1.038-1.221,3.367-1.904,4.99-1.75c0.786,0.076,1.404,2.71,1.89,4.233c0.295,0.913-0.137,2.122,0.31,2.888
			c1.545,2.6,3.347,5.063,5.029,7.576c1.924-1.638,4.121-3.069,5.754-4.976c7.986-9.282,15.779-18.718,23.772-28.01
			c1.577-1.846,3.569-3.386,5.542-4.817c10.325-7.456,19.06-7.544,28.328-0.325c9.583,7.432,12.354,17.466,8.057,28.813
			c-0.801,2.061-1.692,4.121-2.251,6.24c-0.278,1.035-0.312,2.786,0.312,3.259c0.72,0.574,2.317,0.435,3.386,0.093
			c10.554-3.25,16.006-10.342,15.278-21.355c-1.492-22.219-3.55-44.426-5.266-66.633c-1.16-15.159-2.151-30.356-3.284-45.52
			c-0.237-3.411-0.432-6.873-1.118-10.188c-1.301-6.155-0.19-11.709,3.315-16.831c0.747-1.116,1.909-1.997,2.878-2.988
			c1.064,1.216,2.505,2.302,3.103,3.718c1.248,2.927,2.068,6.018,2.986,9.065c1.833,6.116,3.74,12.19,5.339,18.359
			c0.811,3.035,0.945,6.001-3.826,3.43c-0.466-0.269-2.534,1.047-2.639,1.79c-0.31,2.166-0.054,4.421,0.129,6.604
			c1.88,22.475,3.855,44.944,5.679,67.421c0.627,7.812,1.208,15.659,1.233,23.491c0.034,8.396-1.765,16.484-5.51,24.17
			c-7.29,14.939-20.999,20.962-35.581,24.995c-9.856,2.717-20.229,3.831-30.449,5.015c-7.861,0.928-15.684-0.11-23.027-3.521
			c-1.299-0.591-3.286-1.504-4.138-0.969c-7.493,4.746-6.663-0.176-6.057-5c0.049-0.449-0.171-0.991-0.4-1.401
			c-1.858-3.101-3.745-6.16-5.623-9.224c-2.085,2.498-4.192,4.976-6.243,7.493c-1.857,2.29-3.516,4.756-5.518,6.885
			c-5.991,6.399-13.371,9.531-21.94,6.785c-8.387-2.671-11.731-9.895-13.436-17.959c-0.527-2.52-0.9-5.657-1.396-8.193
			c-2.551,0.632-5.261,1.775-7.79,2.527c-11.772,3.406-19.888-0.92-21.37-13.003c-0.815-6.831,0.554-14.106,1.99-20.967
			c1.25-5.947,3.828-11.636,6.035-17.358c2.964-6.782,1.587-6.221-3.616-7.998c-19.194-6.514-29.626-29.05-25.461-47.543
			c2.214-9.751,5.413-19.299,8.306-28.872c0.549-1.858,1.509-3.687,2.661-5.234c1.055-1.44,2.603-2.5,3.94-3.743
			c-0.122,1.78,0.193,3.689-0.371,5.286c-1.902,5.308-4.021,10.542-6.216,15.747c-4.775,11.333-4.346,22.18,1.465,33.254
			c5.679,10.806,15.044,14.854,26.194,16.398C646.255,482.793,648.755,482.498,651.213,482.498z M644.985,541.157
			c2.913-0.94,8.198-1.777,12.544-4.25c17.007-9.697,33.845-19.688,50.471-30.017c12.412-7.69,11.909-10.718-0.168-19.541
			c-8.554-6.772-5.916-7.849-19.348,0c-3.542,2.098-12.925,6.68-16.818,7.713c-5.552,1.44-6.458,1.548-16.429,3.918
			c-1.911,0.454-11.621,1.263-11.621,1.263c-3.157,9.252-7.375,21.438-9.624,30.927
			C632.644,536.765,637.122,541.182,644.985,541.157z M742.097,562.249c14.951,0.591,26.641-3.894,37.146-11.655
			c5.479-4.028,5.911-7.383,2.522-13.293c-6.042-10.627-16.436-13.489-26.863-7.197c-10.508,6.355-17.959,15.771-24.885,25.625
			c-2.271,3.276-0.469,5.195,2.727,5.732C736.337,562.058,740.048,562.083,742.097,562.249z M708.789,425.799
			c2.234-0.193,4.368-1.028,6.152-2.761c-2.747-4.07-2.747-4.07-5.225-5.608c-0.72-0.439-1.89-0.659-2.82-0.557
			c-2.917,0.33-6.604,0.483-6.689,4.253C700.109,424.612,706.901,425.987,708.789,425.799z"/>
		<radialGradient id="SVGID_5_" cx="265.9229" cy="522.3301" r="64.5617" gradientUnits="userSpaceOnUse">
			<stop  offset="0" style="stop-color:#FFE300"/>
			<stop  offset="1" style="stop-color:#FFC000"/>
		</radialGradient>
		<path fill-rule="evenodd" clip-rule="evenodd" fill="url(#SVGID_5_)" d="M301.612,479.111c9.555,0.037,17.817,3.262,24.677,9.878
			c0.942,0.892,1.252,2.483,1.843,3.729c-1.313,0.024-2.729,0.373-3.967,0.02c-14.272-3.999-27.698-1.211-40.53,5.327
			c-5.381,2.744-6.652,5.881-4.738,11.503c3.989,11.606,12.539,18.555,23.854,22.158c2.298,0.745,5.425,0.034,7.808-0.93
			c10.466-4.197,20.771-8.806,31.165-13.157c1.411-0.579,3.066-0.564,4.626-0.811c-0.171,1.592-0.1,3.242-0.549,4.753
			c-1.738,6.062-5.769,9.583-11.594,12.249c-13.132,6.062-25.811,13.071-38.833,19.377c-4.585,2.231-9.509,3.928-14.497,5.161
			c-6.836,1.68-12.412-0.537-16.597-6.536c-3.737-5.359-4.009-5.159-7.946,0.503c-1.523,2.224-3.218,4.316-5.002,6.335
			c-10.378,11.907-27.927,7.205-32.561-5.344c-1.306-3.599-2.852-7.126-4.287-10.713c-3.174,2.036-6.292,4.124-9.548,6.023
			c-1.47,0.862-3.098,1.584-4.766,1.921c-4.832,0.942-9.666,0.134-12.925-3.459c-3.291-3.608-1.267-7.812,0.605-11.672
			c4.26-8.721,10.032-16.313,17.305-22.659c4.519-3.928,7.708-8.105,7.131-14.463c-0.134-1.66,0.298-3.467,0.935-5.036
			c0.959-2.271,2.356-4.407,3.55-6.582c0.933,1.857,1.392,4.341,2.888,5.437c5.708,4.229,3.45,9.1,2.781,14.661
			c-1.021,8.445-0.579,17.173,0.154,25.715c0.347,3.914,2.236,8.101,4.561,11.333c4.05,5.537,8.228,6.003,14.963,4.136
			c7.344-2.036,12.761-5.991,15.878-13.03c0.579-1.34,1.294-2.71,2.271-3.76c1.111-1.184,2.605-2.048,3.895-3.057
			c0.759,1.389,1.777,2.688,2.212,4.158c2.116,7.268,6.779,11.084,13.024,10.51c3.465-0.33,4.324-1.921,2.356-4.824
			c-1.504-2.241-3.213-4.333-4.993-6.36c-14.152-16.331-4.985-45.669,16.118-51.465
			C295.675,479.373,298.689,479.441,301.612,479.111z M215.018,519.749c-0.225-0.525-0.698-2.412-1.716-3.931
			c-0.315-0.457-2.556-0.334-3.171,0.271c-4.348,4.299-8.677,8.64-12.629,13.271c-1.772,2.09-1.135,4.148,2.073,4.631
			C207.484,535.186,215.045,528.938,215.018,519.749z"/>
		<radialGradient id="SVGID_6_" cx="590.8906" cy="862.3105" r="32.4516" gradientUnits="userSpaceOnUse">
			<stop  offset="0" style="stop-color:#FFE300"/>
			<stop  offset="1" style="stop-color:#FFC000"/>
		</radialGradient>
		<path fill-rule="evenodd" clip-rule="evenodd" fill="url(#SVGID_6_)" d="M622.986,859.633c-0.837,1.714-1.204,2.896-1.885,3.877
			c-6.401,9.517-12.91,18.975-19.238,28.558c-2.207,3.311-4.133,4.138-7.627,1.416c-10.454-8.069-21.206-15.745-31.743-23.755
			c-4.541-3.457-4.722-5.789-1.514-10.535c5.762-8.53,11.499-17.06,17.361-25.5c3.662-5.303,5.522-5.334,10.566-1.414
			c9.5,7.358,19.119,14.473,28.616,21.819C619.543,855.692,621.167,857.782,622.986,859.633z"/>
		<radialGradient id="SVGID_7_" cx="381.8164" cy="568.0244" r="64.6159" gradientUnits="userSpaceOnUse">
			<stop  offset="0" style="stop-color:#FFE300"/>
			<stop  offset="1" style="stop-color:#FFC000"/>
		</radialGradient>
		<path fill-rule="evenodd" clip-rule="evenodd" fill="url(#SVGID_7_)" d="M375.56,601.636c0-15.925,0.315-31.885-0.071-47.834
			c-0.493-21.06-1.836-42.095-2.068-63.152c-0.056-4.492,2.917-9.053,4.802-13.493c0.134-0.327,2.71,0.02,3.945,0.603
			c0.63,0.281,0.867,1.683,1.094,2.625c2.249,9.292,4.612,18.557,6.611,27.897c0.92,4.272,0.103,4.827-4.155,3.054
			c-2.271-0.938-2.654-0.063-2.61,1.738c0.701,26.213,1.963,52.405,1.997,78.623c0.032,18.54-1.558,37.092-2.451,55.637
			c-0.034,0.71-0.083,1.523-0.405,2.151c-1.56,3.21-3.245,6.347-4.861,9.534c-0.522-3.191-1.465-6.348-1.499-9.543
			c-0.149-15.93-0.071-31.88-0.071-47.839C375.74,601.636,375.66,601.636,375.56,601.636z"/>
		<radialGradient id="SVGID_8_" cx="844.2031" cy="482.4219" r="59.8199" gradientUnits="userSpaceOnUse">
			<stop  offset="0" style="stop-color:#FFE300"/>
			<stop  offset="1" style="stop-color:#FFC000"/>
		</radialGradient>
		<path fill-rule="evenodd" clip-rule="evenodd" fill="url(#SVGID_8_)" d="M846.188,435.806c1.73,28.367,3.76,55.247,4.831,82.167
			c0.569,14.661,0.145,29.448-4.904,43.591c-0.415,1.177-0.613,2.434-1.235,3.44c-0.447,0.732-1.731,1.689-2.175,1.479
			c-0.942-0.422-1.987-1.409-2.256-2.336c-0.344-1.377-0.037-2.91-0.037-4.375c-0.015-19.609,0.146-39.197-0.149-58.777
			c-0.144-10.017-1.079-20.056-1.67-30.073c-1.123-18.591-1.851-37.238-3.56-55.778c-0.581-6.423,2.417-10.791,5.229-15.527
			c1.375-2.31,2.949-1.189,3.66,0.828c1.975,5.806,3.916,11.619,5.686,17.478c1.362,4.451,2.588,8.943,3.613,13.501
			c0.391,1.763,0.657,4.644-2.715,2.61C846.005,431.297,846.279,434.38,846.188,435.806z"/>
		<radialGradient id="SVGID_9_" cx="419.2812" cy="928.5049" r="44.2749" gradientUnits="userSpaceOnUse">
			<stop  offset="0" style="stop-color:#FFE300"/>
			<stop  offset="1" style="stop-color:#FFC000"/>
		</radialGradient>
		<path fill-rule="evenodd" clip-rule="evenodd" fill="url(#SVGID_9_)" d="M366.99,958.495c0.095-6.79,1.992-10.945,6.826-13.669
			c20.928-11.75,41.724-23.713,62.732-35.32c9.016-4.963,18.393-9.229,27.636-13.757c1.517-0.757,3.159-1.65,4.783-1.685
			c0.874-0.015,2.712,1.748,2.6,2.434c-0.817,4.756-1.086,9.712-6.364,12.466c-15.625,8.12-31.296,16.223-46.641,24.905
			c-15.073,8.547-29.797,17.822-44.688,26.733c-1.57,0.933-3.33,1.584-4.995,2.344C368.062,961.029,367.239,959.135,366.99,958.495z
			"/>
		<radialGradient id="SVGID_10_" cx="462.0493" cy="276.0298" r="29.0161" gradientUnits="userSpaceOnUse">
			<stop  offset="0" style="stop-color:#FFE300"/>
			<stop  offset="1" style="stop-color:#FFC000"/>
		</radialGradient>
		<path fill-rule="evenodd" clip-rule="evenodd" fill="url(#SVGID_10_)" d="M458.203,311.226
			c-13.054-0.061-18.376-8.544-17.055-21.152c0.71-6.895,3.45-13.804,6.367-20.208c3.845-8.444,8.75-16.43,13.215-24.577
			c0.578-1.091,1.169-2.231,2.053-3.044c0.784-0.684,1.937-0.957,2.918-1.411c0.183,0.918,0.734,1.938,0.503,2.732
			c-0.693,2.344-1.595,4.644-2.649,6.836c-1.68,3.494-0.688,5.991,2.283,8.267c3.884,2.964,7.912,5.866,11.267,9.37
			c6.641,6.921,7.617,15.202,3.862,23.862c-3.386,7.795-7.941,14.748-16.599,17.68C461.851,310.44,459.224,310.948,458.203,311.226z
			 M459.048,296.939c4.751-2.4,8.999-4.217,12.83-6.699c0.815-0.564,0.993-4.165,0.127-5.013
			c-4.856-4.733-10.039-9.209-15.354-13.435c-0.781-0.662-3.488-0.254-4.26,0.617c-3.416,3.76-4.358,13.979-1.318,18.115
			C452.942,293.06,456.094,294.656,459.048,296.939z"/>
		<radialGradient id="SVGID_11_" cx="416.5063" cy="947.7529" r="41.989" gradientUnits="userSpaceOnUse">
			<stop  offset="0" style="stop-color:#FFE300"/>
			<stop  offset="1" style="stop-color:#FFC000"/>
		</radialGradient>
		<path fill-rule="evenodd" clip-rule="evenodd" fill="url(#SVGID_11_)" d="M367.12,976.288c0.684-4.521,1.704-9.038,6.621-11.963
			c11.785-7.009,23.142-14.773,35.078-21.519c16.216-9.141,32.793-17.607,49.213-26.338c1.299-0.676,2.674-1.416,4.08-1.609
			c2.805-0.43,4.279,0.933,3.628,3.84c-1.316,5.64-3.501,10.481-9.422,13.076c-28.667,12.542-54.951,29.248-81.008,46.338
			c-0.833,0.552-1.658,1.106-2.502,1.562C368.948,981.73,367.264,980.849,367.12,976.288z"/>
		<radialGradient id="SVGID_12_" cx="707.3032" cy="601.0698" r="20.3828" gradientUnits="userSpaceOnUse">
			<stop  offset="0" style="stop-color:#FFE300"/>
			<stop  offset="1" style="stop-color:#FFC000"/>
		</radialGradient>
		<path fill-rule="evenodd" clip-rule="evenodd" fill="url(#SVGID_12_)" d="M710.371,618.208
			c0.149-9.995-2.749-19.004-10.151-25.869c-4.926-4.565-4.172-9.536-2.507-14.805c1.136-3.579,3.201-4.15,6.079-1.587
			c7.512,6.702,13.533,14.89,14.285,24.971c0.54,7.605-1.704,15.476-3.013,23.149c-0.251,1.379-2.141,2.466-3.247,3.706
			c-0.479-1.47-1.169-2.905-1.396-4.412C710.188,621.667,710.371,619.934,710.371,618.208z"/>
		<radialGradient id="SVGID_13_" cx="976.9219" cy="563.1211" r="40.6564" gradientUnits="userSpaceOnUse">
			<stop  offset="0" style="stop-color:#FFE300"/>
			<stop  offset="1" style="stop-color:#FFC000"/>
		</radialGradient>
		<path fill-rule="evenodd" clip-rule="evenodd" fill="url(#SVGID_13_)" d="M927.267,583.855c0.723-0.984,1.902-4.429,4.211-5.513
			c9.473-4.487,80.779-39.834,90.559-43.64c3.716-1.438,5.125-0.127,4.321,3.701c-1.016,4.871-2.661,9.363-7.944,11.509
			c-7.449,3.074-76.272,37.983-83.73,41.086C928.83,593.396,927.34,592.292,927.267,583.855z"/>
		<radialGradient id="SVGID_14_" cx="428.313" cy="568.9229" r="28.9965" gradientUnits="userSpaceOnUse">
			<stop  offset="0" style="stop-color:#FFE300"/>
			<stop  offset="1" style="stop-color:#FFC000"/>
		</radialGradient>
		<path fill-rule="evenodd" clip-rule="evenodd" fill="url(#SVGID_14_)" d="M394.319,590.271c-0.43-2.209-1.426-4.153-0.837-5.063
			c1.296-1.985,3.12-3.918,5.21-5.073c20.012-10.901,40.093-21.677,60.227-32.344c1.094-0.579,2.922,0.168,4.406,0.33
			c-0.603,1.465-0.827,3.545-1.919,4.307c-3.02,2.039-6.377,3.64-9.704,5.198c-18.408,8.687-36.057,18.794-53.015,30.039
			C397.696,588.315,396.644,588.877,394.319,590.271z"/>
		<radialGradient id="SVGID_15_" cx="307.3115" cy="450.3057" r="29.1194" gradientUnits="userSpaceOnUse">
			<stop  offset="0" style="stop-color:#FFE300"/>
			<stop  offset="1" style="stop-color:#FFC000"/>
		</radialGradient>
		<path fill-rule="evenodd" clip-rule="evenodd" fill="url(#SVGID_15_)" d="M344.039,433.816c-1.323,0.862-2.522,1.99-3.943,2.612
			c-13.904,6.15-27.966,11.909-41.699,18.396c-8.164,3.857-15.854,8.774-23.818,13.12c-1.179,0.618-2.653,0.664-3.994,0.989
			c0.142-1.602-0.256-3.491,0.464-4.666c0.986-1.572,2.72-2.839,4.355-3.835c19.847-11.995,41.179-20.747,62.935-28.511
			c1.582-0.562,3.574,0.015,5.396,0.054C343.824,432.583,343.946,433.187,344.039,433.816z"/>
		<radialGradient id="SVGID_16_" cx="216.0869" cy="597.04" r="22.1558" gradientUnits="userSpaceOnUse">
			<stop  offset="0" style="stop-color:#FFE300"/>
			<stop  offset="1" style="stop-color:#FFC000"/>
		</radialGradient>
		<path fill-rule="evenodd" clip-rule="evenodd" fill="url(#SVGID_16_)" d="M229.613,588.455c-1.548-1.802-3.025-3.694-4.661-5.444
			c-2.454-2.593-2.871-5.925-0.615-7.632c2.769-2.158,4.763,0.046,6.157,1.851c2.49,3.279,5.032,6.709,6.589,10.479
			c2.546,6.118-1.653,11.257-8.276,10.237c-3.157-0.481-4.958,0.527-7.102,2.49c-5.378,4.98-10.999,9.702-16.565,14.509
			c-1.101,0.962-2.153,2.153-3.464,2.656c-2.363,0.906-4.883,1.36-7.339,1.995c1.521-1.936,2.805-4.155,4.648-5.75
			c5.557-4.749,11.392-9.211,17.046-13.899c3.105-2.583,5.581-5.457,3.928-10.125c-0.396-1.113,0.518-2.695,0.82-4.067
			c1.389,0.564,2.749,1.235,4.185,1.663c1.533,0.459,3.13,0.686,4.722,0.986c0.127,0.464,0.112,1.055,0.391,1.365
			c0.754,0.769,1.638,1.394,2.478,2.031c0.046,0.015,0.479-0.442,0.454-0.459c-0.642-0.83-1.26-1.716-2.031-2.473
			C230.697,588.586,230.082,588.596,229.613,588.455z"/>
		<radialGradient id="SVGID_17_" cx="752.999" cy="601.9961" r="23.0592" gradientUnits="userSpaceOnUse">
			<stop  offset="0" style="stop-color:#FFE300"/>
			<stop  offset="1" style="stop-color:#FFC000"/>
		</radialGradient>
		<path fill-rule="evenodd" clip-rule="evenodd" fill="url(#SVGID_17_)" d="M779.836,588.56c0.886,0.603,2.742,1.248,2.859,2.146
			c0.166,1.094-0.83,2.957-1.863,3.513c-2.761,1.499-5.818,2.527-8.779,3.684c-14.407,5.52-28.845,11.011-43.252,16.536
			c-0.918,0.332-1.816,0.913-2.749,0.989c-0.872,0.051-2.361-0.269-2.529-0.779c-0.344-0.977-0.361-2.6,0.264-3.245
			c1.309-1.345,2.991-2.603,4.739-3.289c15.713-6.235,31.499-12.351,47.263-18.442C776.909,589.226,778.139,589.014,779.836,588.56z
			"/>
		<radialGradient id="SVGID_18_" cx="222.0879" cy="450.6582" r="21.687" gradientUnits="userSpaceOnUse">
			<stop  offset="0" style="stop-color:#FFE300"/>
			<stop  offset="1" style="stop-color:#FFC000"/>
		</radialGradient>
		<path fill-rule="evenodd" clip-rule="evenodd" fill="url(#SVGID_18_)" d="M236.893,449.93c-1.931,1.458-4.246,2.578-5.723,4.411
			c-6.301,7.757-14.114,13.594-22.739,18.394c-1.692,0.96-3.889,1.089-5.852,1.59c1.392-1.562,2.605-3.284,4.209-4.609
			c6.948-5.82,14.221-11.272,20.964-17.302c5.847-5.229,5.669-5.552,2.051-12.285c-1.699-3.167-1.709-6.113,0.215-9.028
			c1.462-2.263,3.157-5.273,6.248-3.643c2.026,1.06,4.224,3.633,4.565,5.835c0.847,5.195,0.808,10.579,0.723,15.894
			c-0.02,0.913-2.048,1.794-3.162,2.69C237.894,451.209,237.396,450.567,236.893,449.93z M237.083,435.726
			c-0.962-0.852-1.536-1.555-2.29-1.919c-0.198-0.127-1.316,0.935-1.262,1.018c0.425,0.73,0.952,1.499,1.65,2.017
			C235.345,436.966,236.156,436.285,237.083,435.726z"/>
		<radialGradient id="SVGID_19_" cx="762.5547" cy="490.5088" r="12.303" gradientUnits="userSpaceOnUse">
			<stop  offset="0" style="stop-color:#FFE300"/>
			<stop  offset="1" style="stop-color:#FFC000"/>
		</radialGradient>
		<path fill-rule="evenodd" clip-rule="evenodd" fill="url(#SVGID_19_)" d="M774.895,489.764c-0.635,2.49-1.091,5.173-2.004,7.663
			c-1.213,3.353-3.604,4.739-6.873,2.524c-2.327-1.562-4.155-2.339-6.228,0.398c-2.148,2.858-5.513,3.298-7.559,0.742
			c-1.611-1.958-1.411-5.308-2.017-8.066c0.784,0.036,1.667-0.127,2.344,0.158c1.575,0.691,3.542,2.615,4.421,2.168
			c1.443-0.739,2.888-2.839,3.074-4.509c0.269-2.825-0.598-5.767-0.63-8.677c-0.01-0.96,1.138-1.922,1.736-2.879
			c0.884,0.721,2.175,1.294,2.522,2.229c0.564,1.584,0.498,3.356,0.769,5.056c0.254,1.663,0.183,3.604,1.042,4.93
			c0.737,1.159,2.566,1.633,3.923,2.427c0.566-1.411,1.687-2.871,1.584-4.233c-0.227-2.881-1.265-5.698-1.626-8.56
			c-0.103-0.896,0.908-1.927,1.423-2.894c0.627,0.662,1.619,1.233,1.86,2.031C773.503,483.315,774.138,486.421,774.895,489.764z"/>
		<radialGradient id="SVGID_20_" cx="676.2217" cy="401.978" r="9.9193" gradientUnits="userSpaceOnUse">
			<stop  offset="0" style="stop-color:#FFE300"/>
			<stop  offset="1" style="stop-color:#FFC000"/>
		</radialGradient>
		<path fill-rule="evenodd" clip-rule="evenodd" fill="url(#SVGID_20_)" d="M685.923,402.574c-0.11,3.518-5.981,9.849-8.841,9.524
			c-3.066-0.347-10.48-7.563-10.562-10.337c-0.098-3.262,5.652-9.871,8.606-9.915C678.345,391.802,686.025,399.41,685.923,402.574z"
			/>
		<radialGradient id="SVGID_21_" cx="771.7734" cy="453.3232" r="9.938" gradientUnits="userSpaceOnUse">
			<stop  offset="0" style="stop-color:#FFE300"/>
			<stop  offset="1" style="stop-color:#FFC000"/>
		</radialGradient>
		<path fill-rule="evenodd" clip-rule="evenodd" fill="url(#SVGID_21_)" d="M773.239,463.499
			c-3.042-0.027-11.111-7.676-11.16-10.593c-0.046-3.845,5.283-9.995,8.45-9.751c3.274,0.217,10.835,7.097,10.938,9.915
			C781.545,455.784,775.424,463.509,773.239,463.499z"/>
		<radialGradient id="SVGID_22_" cx="652.4473" cy="403.7256" r="9.8376" gradientUnits="userSpaceOnUse">
			<stop  offset="0" style="stop-color:#FFE300"/>
			<stop  offset="1" style="stop-color:#FFC000"/>
		</radialGradient>
		<path fill-rule="evenodd" clip-rule="evenodd" fill="url(#SVGID_22_)" d="M651.618,393.755
			c3.135,0.168,11.678,8.025,10.398,10.188c-2.163,3.757-5.439,7.314-9.104,9.597c-2.255,1.421-10.393-7.043-10.158-9.985
			C642.998,399.842,648.672,393.577,651.618,393.755z"/>
		<radialGradient id="SVGID_23_" cx="440.7812" cy="597.3018" r="9.6888" gradientUnits="userSpaceOnUse">
			<stop  offset="0" style="stop-color:#FFE300"/>
			<stop  offset="1" style="stop-color:#FFC000"/>
		</radialGradient>
		<path fill-rule="evenodd" clip-rule="evenodd" fill="url(#SVGID_23_)" d="M450.303,597.803c-0.208,3.665-5.139,9.49-7.927,9.346
			c-3.408-0.198-11.14-6.768-11.121-9.478c0.024-3.879,5.085-10.332,7.983-10.217C442.977,587.634,450.508,594.639,450.303,597.803z
			"/>
		<radialGradient id="SVGID_24_" cx="747.2783" cy="456.4307" r="9.9772" gradientUnits="userSpaceOnUse">
			<stop  offset="0" style="stop-color:#FFE300"/>
			<stop  offset="1" style="stop-color:#FFC000"/>
		</radialGradient>
		<path fill-rule="evenodd" clip-rule="evenodd" fill="url(#SVGID_24_)" d="M747.675,446.114c2.224,2.051,5.483,4.57,8.071,7.639
			c2.285,2.712,0.837,5.488-1.331,7.852c-1.824,1.989-2.539,6.564-6.138,4.709c-3.953-2.017-7.563-5.215-10.42-8.684
			C736.318,455.789,743.798,446.08,747.675,446.114z"/>
		<radialGradient id="SVGID_25_" cx="244.2412" cy="508.0273" r="9.8641" gradientUnits="userSpaceOnUse">
			<stop  offset="0" style="stop-color:#FFE300"/>
			<stop  offset="1" style="stop-color:#FFC000"/>
		</radialGradient>
		<path fill-rule="evenodd" clip-rule="evenodd" fill="url(#SVGID_25_)" d="M253.839,509.133c-2.832,3.037-5.242,6.741-8.63,8.87
			c-2.124,1.355-10.627-6.96-10.564-9.692c0.068-2.815,6.091-10.513,8.125-10.405C246.095,498.079,253.048,505.225,253.839,509.133z
			"/>
		<radialGradient id="SVGID_26_" cx="420.4639" cy="530.8623" r="12.0461" gradientUnits="userSpaceOnUse">
			<stop  offset="0" style="stop-color:#FFE300"/>
			<stop  offset="1" style="stop-color:#FFC000"/>
		</radialGradient>
		<path fill-rule="evenodd" clip-rule="evenodd" fill="url(#SVGID_26_)" d="M424.888,528.242c-0.708-0.225-1.46-0.474-2.17-0.703
			c0.344-0.647,0.615-1.306,1.03-1.873c2.349-3.184,5.354-4.263,8.928-2.349c3.147,1.665,3.33,4.644,0.862,8.857
			c-4.604,7.898-11.689,9.316-19.622,4.082c-1.345-0.869-3.015-1.294-4.617-1.743c-1.152-0.334-2.383-0.359-3.604-0.513
			c0.784-1.204,1.316-3,2.393-3.43c2.048-0.813,4.482-1.355,6.641-1.04c3.574,0.503,7,2.092,10.571,2.515
			c1.196,0.129,2.642-1.934,3.94-2.988c-1.245-0.703-2.512-1.375-3.752-2.078C425.276,527.395,425.098,527.822,424.888,528.242z"/>
		<radialGradient id="SVGID_27_" cx="976.8301" cy="681.3633" r="32.8694" gradientUnits="userSpaceOnUse">
			<stop  offset="0" style="stop-color:#FFE300"/>
			<stop  offset="1" style="stop-color:#FFC000"/>
		</radialGradient>
		<path fill-rule="evenodd" clip-rule="evenodd" fill="url(#SVGID_27_)" d="M1001.925,675.505c-2.117,0.574-4.165,1.409-6.306,1.961
			c-1.306,0.332-4.397,1.76-8.503,2.805c-4.331,1.128-8.882,1.704-10.41,1.895c-6.807,0.833-11.814-2.505-15.798-7.458
			c-1.008-1.268-1.443-3.816-0.894-5.315c1.431-3.918,12.056-8.903,16.438-8.066c2.759,0.511,5.449,1.263,8.181,1.937
			c-0.034-3.133-0.1-6.238-0.1-9.378c0-0.974,0.273-1.95,0.264-2.927c0-3.455-1.987-5.095-5.161-4.507
			c-2.612,0.479-5.137,1.609-7.542,2.791c-9.114,4.448-15.41,12.011-21.318,19.897c-6.599,8.816-5.627,14.437,3.157,21.263
			c5.647,4.392,5.339,4.507,0.081,9.775c-3.152,3.169-5.349,7.38-7.507,11.375c-0.659,1.199,0.273,3.215,0.496,4.844
			c1.533-0.383,3.215-0.508,4.548-1.25c9.797-5.615,19.502-11.401,29.285-17.004c1.372-0.794,4.824-2.464,8.01-3.706
			c4.429-1.697,8.076-2.617,10.571-3.828c4.47-2.217,5.977-6.426,7.476-10.469C1008.412,676.074,1006.337,674.297,1001.925,675.505z
			"/>
		<radialGradient id="SVGID_28_" cx="274.4482" cy="407.1685" r="9.0237" gradientUnits="userSpaceOnUse">
			<stop  offset="0" style="stop-color:#FFE300"/>
			<stop  offset="1" style="stop-color:#FFC000"/>
		</radialGradient>
		<path fill-rule="evenodd" clip-rule="evenodd" fill="url(#SVGID_28_)" d="M282.159,407.417c-2.083,3.281-3.306,6.384-5.483,8.396
			c-3.611,3.315-9.302,0.872-9.9-3.982c-0.195-1.357,0.398-2.808,0.662-4.219c1.13,0.635,2.202,1.589,3.442,1.865
			c1.618,0.339,3.391,0.178,5.083,0.229c-0.638-1.577-1.116-3.254-2.012-4.69c-0.452-0.73-1.756-0.842-2.5-1.448
			c-2.41-1.968-2.212-4.534-0.247-6.316c0.682-0.659,3.682,0.059,4.6,1.067C278.146,400.914,279.866,404.056,282.159,407.417z"/>
		<radialGradient id="SVGID_29_" cx="761.1787" cy="417.1084" r="8.8482" gradientUnits="userSpaceOnUse">
			<stop  offset="0" style="stop-color:#FFE300"/>
			<stop  offset="1" style="stop-color:#FFC000"/>
		</radialGradient>
		<path fill-rule="evenodd" clip-rule="evenodd" fill="url(#SVGID_29_)" d="M767.602,424.432c-0.923,1.294-1.675,2.356-2.456,3.416
			c-0.71-0.84-1.543-1.648-2.146-2.588c-2.068-3.142-4.331-6.235-6.001-9.602c-1.218-2.395-1.731-5.208-2.244-7.915
			c-0.046-0.273,2.532-1.624,2.847-1.331c1.853,1.714,3.823,3.564,4.949,5.762C764.509,416.031,765.903,420.186,767.602,424.432z"/>
		<radialGradient id="SVGID_30_" cx="629.2905" cy="444.4092" r="8.6907" gradientUnits="userSpaceOnUse">
			<stop  offset="0" style="stop-color:#FFE300"/>
			<stop  offset="1" style="stop-color:#FFC000"/>
		</radialGradient>
		<path fill-rule="evenodd" clip-rule="evenodd" fill="url(#SVGID_30_)" d="M634.973,449.92c-0.315,1.956-0.344,2.957-0.664,3.833
			c-0.215,0.632-1.067,1.628-1.23,1.55c-0.762-0.319-1.902-0.962-1.921-1.506c-0.129-4.766-2.539-8.147-5.886-11.272
			c-1.079-1.033-1.677-3.081-1.663-4.646c0.015-1.46,1.15-2.915,1.772-4.368c1.301,0.85,3.215,1.401,3.77,2.568
			C631.411,440.845,633.262,445.799,634.973,449.92z"/>
		<radialGradient id="SVGID_31_" cx="775.5967" cy="408.2256" r="5.2911" gradientUnits="userSpaceOnUse">
			<stop  offset="0" style="stop-color:#FFE300"/>
			<stop  offset="1" style="stop-color:#FFC000"/>
		</radialGradient>
		<path fill-rule="evenodd" clip-rule="evenodd" fill="url(#SVGID_31_)" d="M769.726,411.685c-0.173-2.7,4.617-8.584,7.153-8.062
			c1.709,0.325,3.083,2.366,4.592,3.628c-1.243,0.706-2.449,1.418-3.711,2.09c-1.829,0.933-3.638,1.865-5.488,2.781
			c-0.605,0.317-1.255,0.605-1.907,0.737C770.229,412.884,769.943,412.098,769.726,411.685z"/>
		<radialGradient id="SVGID_32_" cx="643.4185" cy="436.0537" r="4.7352" gradientUnits="userSpaceOnUse">
			<stop  offset="0" style="stop-color:#FFE300"/>
			<stop  offset="1" style="stop-color:#FFC000"/>
		</radialGradient>
		<path fill-rule="evenodd" clip-rule="evenodd" fill="url(#SVGID_32_)" d="M638.965,440.313c-0.063-0.095-0.833-0.874-0.698-1.086
			c1.616-2.59,3.157-5.247,5.215-7.39c0.33-0.334,4.048,1.394,4.731,2.876c1.379,3.062-1.375,2.407-3.257,2.815
			C642.979,437.947,641.184,439.236,638.965,440.313z"/>
		<radialGradient id="SVGID_33_" cx="750.9771" cy="485.2358" r="2.312" gradientUnits="userSpaceOnUse">
			<stop  offset="0" style="stop-color:#FFE300"/>
			<stop  offset="1" style="stop-color:#FFC000"/>
		</radialGradient>
		<path fill-rule="evenodd" clip-rule="evenodd" fill="url(#SVGID_33_)" d="M750.998,488.157c-0.825-2.264-1.489-3.284-1.489-4.295
			c0-0.518,1.169-1.035,1.804-1.548c0.415,0.809,1.082,1.562,1.13,2.386C752.485,485.418,751.857,486.204,750.998,488.157z"/>
	</g>
</g>
</svg>
